# xmcd
#
# Track frame offsets:
#	150
#	18458
#	33409
#	48719
#	65947
#	82841
#	99599
#	117350
#	134662
#	155711
#	170024
#	188675
#
# Disc length: 2685 seconds
#
# Revision: 1
# Processed by: cddbd v1.5.2PL0 Copyright (c) Steve Scherf et al.
# Submitted via: audiograbber 1.83.01
#
DISCID=ab0a7b0c
DTITLE=Kaylee Bell - Wayward
DYEAR=2010
DGENRE=Pop
TTITLE0=Ride That River
TTITLE1=Love Was Just A Fairy Tale
TTITLE2=Strawberry Sunset
TTITLE3=Sorry
TTITLE4=The Seed
TTITLE5=Wayward
TTITLE6=Welcome Home
TTITLE7=Unglamorous
TTITLE8=Move On With Your Life
TTITLE9=Only Be Me
TTITLE10=Shy
TTITLE11=What A Little Love Can Do
EXTD=
EXTT0=
EXTT1=
EXTT2=
EXTT3=
EXTT4=
EXTT5=
EXTT6=
EXTT7=
EXTT8=
EXTT9=
EXTT10=
EXTT11=
PLAYORDER=
